<svg width="20" height="17" viewBox="0 0 20 17" fill="none" xmlns="http://www.w3.org/2000/svg">
<path fill-rule="evenodd" clip-rule="evenodd" d="M10.25 4C10.25 5.24264 9.24264 6.25 8 6.25C6.75736 6.25 5.75 5.24264 5.75 4C5.75 2.75736 6.75736 1.75 8 1.75C9.24264 1.75 10.25 2.75736 10.25 4ZM11.874 5C11.4299 6.72523 9.86384 8 8 8C6.13616 8 4.57006 6.72523 4.12602 5H1C0.447715 5 0 4.55228 0 4C0 3.44772 0.447715 3 1 3H4.12602C4.57006 1.27477 6.13616 0 8 0C9.86384 0 11.4299 1.27477 11.874 3H19C19.5523 3 20 3.44772 20 4C20 4.55228 19.5523 5 19 5H11.874Z" fill="#D9D9D9"/>
<path fill-rule="evenodd" clip-rule="evenodd" d="M9.75 13C9.75 11.7574 10.7574 10.75 12 10.75C13.2426 10.75 14.25 11.7574 14.25 13C14.25 14.2426 13.2426 15.25 12 15.25C10.7574 15.25 9.75 14.2426 9.75 13ZM8.12602 12C8.57006 10.2748 10.1362 9 12 9C13.8638 9 15.4299 10.2748 15.874 12L19 12C19.5523 12 20 12.4477 20 13C20 13.5523 19.5523 14 19 14L15.874 14C15.4299 15.7252 13.8638 17 12 17C10.1362 17 8.57006 15.7252 8.12602 14L1 14C0.447716 14 3.01409e-07 13.5523 3.49691e-07 13C3.97973e-07 12.4477 0.447716 12 1 12L8.12602 12Z" fill="#D9D9D9"/>
</svg>
